Coordinates
version=1
nRows=49
nColumns=12
inDegrees=yes

Units are S.I. units (second, meters, Newtons, ...)
Angles are in degrees

endheader
time	SC_y	SC_z	SC_x	AC_y	AC_z	AC_x	GH_y	GH_z	GH_yy	EL_x	PS_y
       0.0              -36.71          24.93          50.97          59.07         -16.66         -14.96         -146.9          47.66          141.0          18.12          83.93
   0.04466               -36.7          24.93          50.97          59.07         -16.66         -14.96         -146.8          47.67          140.9          18.12          83.92
   0.08932               -36.7          24.93          50.96          59.07         -16.66         -14.95         -146.8          47.67          140.9          18.13          83.91
     0.134               -36.7          24.93          50.95          59.07         -16.66         -14.95         -146.8          47.68          140.8          18.14          83.91
    0.1786               -36.7          24.94          50.94          59.06         -16.66         -14.94         -146.7          47.68          140.8          18.14           83.9
    0.2233               -36.7          24.94          50.93          59.06         -16.66         -14.94         -146.7          47.69          140.7          18.15          83.89
     0.268               -36.7          24.94          50.93          59.06         -16.65         -14.93         -146.6          47.69          140.6          18.16          83.88
    0.3126               -36.7          24.94          50.92          59.06         -16.65         -14.92         -146.6           47.7          140.6          18.17          83.87
    0.3573              -36.69          24.95          50.91          59.05         -16.65         -14.92         -146.6          47.71          140.5          18.18          83.86
     0.402              -36.69          24.95          50.89          59.05         -16.65         -14.91         -146.5          47.71          140.4          18.19          83.85
    0.4466              -36.69          24.96          50.88          59.05         -16.65          -14.9         -146.5          47.72          140.3           18.2          83.83
    0.4913              -36.69          24.96          50.87          59.04         -16.65         -14.89         -146.4          47.73          140.3          18.21          83.82
    0.5359              -36.68          24.96          50.86          59.04         -16.65         -14.88         -146.3          47.74          140.2          18.22           83.8
    0.5806              -36.68          24.97          50.84          59.03         -16.64         -14.87         -146.3          47.75          140.1          18.24          83.79
    0.6253              -36.68          24.97          50.82          59.03         -16.64         -14.86         -146.2          47.76          139.9          18.25          83.77
    0.6699              -36.67          24.98          50.81          59.02         -16.64         -14.85         -146.1          47.77          139.8          18.27          83.75
    0.7146              -36.67          24.99          50.79          59.02         -16.64         -14.84         -146.0          47.78          139.7          18.29          83.73
    0.7592              -36.67          24.99          50.77          59.01         -16.63         -14.82         -146.0           47.8          139.5          18.31          83.71
    0.8039              -36.66           25.0          50.74           59.0         -16.63         -14.81         -145.9          47.81          139.4          18.33          83.68
    0.8486              -36.66          25.01          50.72          58.99         -16.63         -14.79         -145.8          47.83          139.2          18.35          83.66
    0.8932              -36.65          25.02          50.69          58.99         -16.63         -14.77         -145.6          47.85          139.0          18.38          83.63
    0.9379              -36.65          25.03          50.66          58.98         -16.62         -14.75         -145.5          47.87          138.8           18.4           83.6
    0.9826              -36.64          25.04          50.63          58.97         -16.62         -14.73         -145.4          47.89          138.6          18.43          83.56
     1.027              -36.63          25.05          50.59          58.96         -16.61          -14.7         -145.2          47.91          138.3          18.47          83.52
     1.072              -36.62          25.06          50.55          58.94         -16.61         -14.68         -145.0          47.94          138.0          18.51          83.48
     1.117              -36.62          25.08          50.51          58.93          -16.6         -14.65         -144.8          47.97          137.7          18.55          83.43
     1.161              -36.61          25.09          50.45          58.91          -16.6         -14.61         -144.6           48.0          137.4          18.59          83.37
     1.206              -36.59          25.11           50.4          58.89         -16.59         -14.57         -144.3          48.04          137.0          18.65          83.31
     1.251              -36.58          25.13          50.33          58.87         -16.58         -14.53         -144.1          48.08          136.5          18.71          83.24
     1.295              -36.57          25.15          50.26          58.85         -16.57         -14.48         -143.7          48.13          136.0          18.78          83.16
      1.34              -36.55          25.18          50.17          58.83         -16.56         -14.42         -143.4          48.18          135.4          18.85          83.07
     1.385              -36.53          25.21          50.08           58.8         -16.55         -14.36         -143.0          48.25          134.7          18.94          82.97
     1.429              -36.51          25.25          49.97          58.76         -16.54         -14.28         -142.5          48.32          133.9          19.05          82.85
     1.474              -36.49          25.29          49.84          58.72         -16.52         -14.19         -141.9           48.4          133.0          19.17          82.71
     1.518              -36.46          25.34          49.69          58.67          -16.5         -14.09         -141.2           48.5          132.0          19.31          82.54
     1.563              -36.42          25.39          49.51          58.62         -16.48         -13.97         -140.5          48.62          130.7          19.47          82.35
     1.608              -36.38          25.46          49.29          58.55         -16.46         -13.83         -139.5          48.76          129.2          19.67          82.12
     1.652              -36.33          25.54          49.04          58.47         -16.43         -13.65         -138.4          48.92          127.5           19.9          81.85
     1.697              -36.27          25.64          48.73          58.38         -16.39         -13.45         -137.1          49.13          125.3          20.19          81.52
     1.742               -36.2          25.76          48.35          58.26         -16.34         -13.19         -135.5          49.37          122.7          20.54          81.11
     1.786              -36.11          25.91          47.89          58.12         -16.29         -12.88         -133.4          49.67          119.4          20.97          80.61
     1.831              -35.99          26.09          47.31          57.94         -16.22         -12.49         -130.9          50.05          115.4           21.5          79.99
     1.876              -35.85          26.32          46.58          57.71         -16.13         -11.99         -127.7          50.53          110.3          22.18          79.21
      1.92              -35.67          26.62          45.65          57.42         -16.02         -11.37         -123.7          51.13          103.8          23.03          78.21
     1.965              -35.44           27.0          44.47          57.05         -15.88         -10.56         -118.5          51.91          95.47          24.13          76.93
      2.01              -35.15          27.48          42.94          56.58         -15.69         -9.532         -111.9           52.9          84.81          25.54          75.29
     2.054              -34.77           28.1           41.0          55.97         -15.46         -8.216         -103.4          54.17           71.2          27.34           73.2
     2.099              -34.29          28.88          38.55          55.21         -15.16         -6.561         -92.78          55.76          54.09           29.6          70.57
     2.144              -33.71          29.83          35.57          54.29          -14.8         -4.545         -79.79          57.71          33.23          32.36          67.36
